<mxfile host="app.diagrams.net" agent="Mozilla/5.0 (Macintosh; Intel Mac OS X 10_15_7) AppleWebKit/537.36 (KHTML, like Gecko) Chrome/120.0.0.0 Safari/537.36" version="24.7.13">
  <diagram id="C5RBs43oDa-KdzZeNtuy" name="Page-1">
    <mxGraphModel dx="1554" dy="772" grid="1" gridSize="10" guides="1" tooltips="1" connect="1" arrows="1" fold="1" page="1" pageScale="1" pageWidth="827" pageHeight="1169" math="0" shadow="0">
      <root>
        <mxCell id="WIyWlLk6GJQsqaUBKTNV-0" />
        <mxCell id="WIyWlLk6GJQsqaUBKTNV-1" parent="WIyWlLk6GJQsqaUBKTNV-0" />
        <mxCell id="yDHYZ-FwkabpV13TImDi-0" value="AWS Provider" style="whiteSpace=wrap;strokeWidth=2;" vertex="1" parent="WIyWlLk6GJQsqaUBKTNV-1">
          <mxGeometry x="75" y="20" width="108" height="34" as="geometry" />
        </mxCell>
        <mxCell id="yDHYZ-FwkabpV13TImDi-1" value="EKS Module" style="whiteSpace=wrap;strokeWidth=2;" vertex="1" parent="WIyWlLk6GJQsqaUBKTNV-1">
          <mxGeometry x="81" y="122" width="96" height="34" as="geometry" />
        </mxCell>
        <mxCell id="yDHYZ-FwkabpV13TImDi-2" value="EKS Cluster" style="whiteSpace=wrap;strokeWidth=2;" vertex="1" parent="WIyWlLk6GJQsqaUBKTNV-1">
          <mxGeometry x="81" y="224" width="96" height="34" as="geometry" />
        </mxCell>
        <mxCell id="yDHYZ-FwkabpV13TImDi-3" value="Node Group" style="whiteSpace=wrap;strokeWidth=2;" vertex="1" parent="WIyWlLk6GJQsqaUBKTNV-1">
          <mxGeometry x="79" y="326" width="100" height="34" as="geometry" />
        </mxCell>
        <mxCell id="yDHYZ-FwkabpV13TImDi-4" value="Spring Boot App Deployment" style="whiteSpace=wrap;strokeWidth=2;" vertex="1" parent="WIyWlLk6GJQsqaUBKTNV-1">
          <mxGeometry x="20" y="428" width="218" height="34" as="geometry" />
        </mxCell>
        <mxCell id="yDHYZ-FwkabpV13TImDi-5" value="Spring Boot App Container" style="whiteSpace=wrap;strokeWidth=2;" vertex="1" parent="WIyWlLk6GJQsqaUBKTNV-1">
          <mxGeometry x="28" y="530" width="202" height="34" as="geometry" />
        </mxCell>
        <mxCell id="yDHYZ-FwkabpV13TImDi-6" value="Creates" style="curved=1;startArrow=none;endArrow=block;exitX=0.5;exitY=0.99;entryX=0.5;entryY=0;rounded=0;" edge="1" parent="WIyWlLk6GJQsqaUBKTNV-1" source="yDHYZ-FwkabpV13TImDi-0" target="yDHYZ-FwkabpV13TImDi-1">
          <mxGeometry relative="1" as="geometry">
            <Array as="points" />
          </mxGeometry>
        </mxCell>
        <mxCell id="yDHYZ-FwkabpV13TImDi-7" value="Creates" style="curved=1;startArrow=none;endArrow=block;exitX=0.5;exitY=0.99;entryX=0.5;entryY=0;rounded=0;" edge="1" parent="WIyWlLk6GJQsqaUBKTNV-1" source="yDHYZ-FwkabpV13TImDi-1" target="yDHYZ-FwkabpV13TImDi-2">
          <mxGeometry relative="1" as="geometry">
            <Array as="points" />
          </mxGeometry>
        </mxCell>
        <mxCell id="yDHYZ-FwkabpV13TImDi-8" value="Contains" style="curved=1;startArrow=none;endArrow=block;exitX=0.5;exitY=0.99;entryX=0.5;entryY=0;rounded=0;" edge="1" parent="WIyWlLk6GJQsqaUBKTNV-1" source="yDHYZ-FwkabpV13TImDi-2" target="yDHYZ-FwkabpV13TImDi-3">
          <mxGeometry relative="1" as="geometry">
            <Array as="points" />
          </mxGeometry>
        </mxCell>
        <mxCell id="yDHYZ-FwkabpV13TImDi-9" value="Runs" style="curved=1;startArrow=none;endArrow=block;exitX=0.5;exitY=0.99;entryX=0.5;entryY=0;rounded=0;" edge="1" parent="WIyWlLk6GJQsqaUBKTNV-1" source="yDHYZ-FwkabpV13TImDi-3" target="yDHYZ-FwkabpV13TImDi-4">
          <mxGeometry relative="1" as="geometry">
            <Array as="points" />
          </mxGeometry>
        </mxCell>
        <mxCell id="yDHYZ-FwkabpV13TImDi-10" value="Deploys" style="curved=1;startArrow=none;endArrow=block;exitX=0.5;exitY=0.99;entryX=0.5;entryY=0;rounded=0;" edge="1" parent="WIyWlLk6GJQsqaUBKTNV-1" source="yDHYZ-FwkabpV13TImDi-4" target="yDHYZ-FwkabpV13TImDi-5">
          <mxGeometry relative="1" as="geometry">
            <Array as="points" />
          </mxGeometry>
        </mxCell>
        <mxCell id="yDHYZ-FwkabpV13TImDi-11" value="AWS Provider" style="whiteSpace=wrap;strokeWidth=2;" vertex="1" parent="WIyWlLk6GJQsqaUBKTNV-1">
          <mxGeometry x="430" y="20" width="108" height="34" as="geometry" />
        </mxCell>
        <mxCell id="yDHYZ-FwkabpV13TImDi-12" value="EKS Module" style="whiteSpace=wrap;strokeWidth=2;" vertex="1" parent="WIyWlLk6GJQsqaUBKTNV-1">
          <mxGeometry x="513" y="122" width="96" height="34" as="geometry" />
        </mxCell>
        <mxCell id="yDHYZ-FwkabpV13TImDi-13" value="EKS Cluster" style="whiteSpace=wrap;strokeWidth=2;" vertex="1" parent="WIyWlLk6GJQsqaUBKTNV-1">
          <mxGeometry x="513" y="224" width="96" height="34" as="geometry" />
        </mxCell>
        <mxCell id="yDHYZ-FwkabpV13TImDi-14" value="Spring Boot App Deployment" style="whiteSpace=wrap;strokeWidth=2;" vertex="1" parent="WIyWlLk6GJQsqaUBKTNV-1">
          <mxGeometry x="452" y="326" width="218" height="34" as="geometry" />
        </mxCell>
        <mxCell id="yDHYZ-FwkabpV13TImDi-15" value="Node Group" style="whiteSpace=wrap;strokeWidth=2;" vertex="1" parent="WIyWlLk6GJQsqaUBKTNV-1">
          <mxGeometry x="588" y="20" width="100" height="34" as="geometry" />
        </mxCell>
        <mxCell id="yDHYZ-FwkabpV13TImDi-16" value="Spring Boot App Container" style="whiteSpace=wrap;strokeWidth=2;" vertex="1" parent="WIyWlLk6GJQsqaUBKTNV-1">
          <mxGeometry x="460" y="428" width="202" height="34" as="geometry" />
        </mxCell>
        <mxCell id="yDHYZ-FwkabpV13TImDi-17" value="Creates" style="curved=1;startArrow=none;endArrow=block;exitX=0.5;exitY=0.99;entryX=0.24;entryY=0;rounded=0;" edge="1" parent="WIyWlLk6GJQsqaUBKTNV-1" source="yDHYZ-FwkabpV13TImDi-11" target="yDHYZ-FwkabpV13TImDi-12">
          <mxGeometry relative="1" as="geometry">
            <Array as="points">
              <mxPoint x="484" y="88" />
            </Array>
          </mxGeometry>
        </mxCell>
        <mxCell id="yDHYZ-FwkabpV13TImDi-18" value="Creates" style="curved=1;startArrow=none;endArrow=block;exitX=0.5;exitY=0.99;entryX=0.5;entryY=0;rounded=0;" edge="1" parent="WIyWlLk6GJQsqaUBKTNV-1" source="yDHYZ-FwkabpV13TImDi-12" target="yDHYZ-FwkabpV13TImDi-13">
          <mxGeometry relative="1" as="geometry">
            <Array as="points" />
          </mxGeometry>
        </mxCell>
        <mxCell id="yDHYZ-FwkabpV13TImDi-19" value="Contains" style="curved=1;startArrow=none;endArrow=block;exitX=0.5;exitY=0.99;entryX=0.5;entryY=0;rounded=0;" edge="1" parent="WIyWlLk6GJQsqaUBKTNV-1" source="yDHYZ-FwkabpV13TImDi-13" target="yDHYZ-FwkabpV13TImDi-14">
          <mxGeometry relative="1" as="geometry">
            <Array as="points" />
          </mxGeometry>
        </mxCell>
        <mxCell id="yDHYZ-FwkabpV13TImDi-20" value="Belongs to" style="curved=1;startArrow=none;endArrow=block;exitX=0.5;exitY=0.99;entryX=0.77;entryY=0;rounded=0;" edge="1" parent="WIyWlLk6GJQsqaUBKTNV-1" source="yDHYZ-FwkabpV13TImDi-15" target="yDHYZ-FwkabpV13TImDi-12">
          <mxGeometry relative="1" as="geometry">
            <Array as="points">
              <mxPoint x="638" y="88" />
            </Array>
          </mxGeometry>
        </mxCell>
        <mxCell id="yDHYZ-FwkabpV13TImDi-21" value="Deploys" style="curved=1;startArrow=none;endArrow=block;exitX=0.5;exitY=0.99;entryX=0.5;entryY=0;rounded=0;" edge="1" parent="WIyWlLk6GJQsqaUBKTNV-1" source="yDHYZ-FwkabpV13TImDi-14" target="yDHYZ-FwkabpV13TImDi-16">
          <mxGeometry relative="1" as="geometry">
            <Array as="points" />
          </mxGeometry>
        </mxCell>
      </root>
    </mxGraphModel>
  </diagram>
</mxfile>
